<?xml version="1.0" standalone="no"?>
<!DOCTYPE svg PUBLIC "-//W3C//DTD SVG 20010904//EN"
 "http://www.w3.org/TR/2001/REC-SVG-20010904/DTD/svg10.dtd">
<svg version="1.0" xmlns="http://www.w3.org/2000/svg"
 width="512.000000pt" height="512.000000pt" viewBox="0 0 512.000000 512.000000"
 preserveAspectRatio="xMidYMid meet">

<g transform="translate(0.000000,512.000000) scale(0.100000,-0.100000)"
fill="#000000" stroke="none">
<path d="M2835 4554 c-211 -47 -406 -199 -500 -390 l-37 -74 -64 59 c-108 102
-254 174 -414 207 -65 13 -112 15 -205 11 -146 -7 -210 -24 -340 -87 -114 -55
-210 -130 -291 -228 -61 -74 -144 -233 -169 -327 -25 -90 -31 -283 -12 -380
63 -334 321 -607 644 -684 43 -10 78 -23 78 -28 0 -6 -43 -43 -95 -83 -196
-150 -430 -370 -430 -405 0 -27 20 -55 46 -65 34 -13 66 5 134 75 68 71 229
210 336 292 l80 61 85 -24 c279 -81 586 -48 884 97 l100 48 735 3 c678 3 739
5 790 22 244 80 406 280 426 525 21 271 -172 537 -441 606 -43 11 -112 15
-251 15 l-191 0 -6 88 c-12 179 -81 328 -216 463 -96 96 -179 148 -299 186
-100 33 -273 40 -377 17z m304 -135 c191 -46 364 -209 428 -404 21 -67 26 -98
25 -194 0 -161 -16 -151 258 -151 123 0 242 -5 272 -11 136 -29 253 -121 315
-247 37 -75 38 -78 38 -192 0 -114 -1 -118 -37 -191 -60 -122 -152 -201 -277
-239 -60 -19 -95 -20 -681 -20 l-618 0 77 79 c137 140 249 331 291 495 33 131
28 146 -61 185 -101 45 -215 65 -374 65 -164 0 -229 -9 -380 -55 -356 -109
-666 -369 -810 -683 -42 -90 -47 -91 -172 -51 -200 63 -377 227 -456 422 -40
99 -52 162 -51 278 0 131 18 207 73 320 94 191 259 328 466 386 61 18 106 23
190 23 134 0 206 -17 333 -80 94 -46 178 -118 283 -242 60 -71 110 -50 135 58
55 236 256 422 498 461 59 9 169 3 235 -12z m-177 -970 c52 -10 148 -38 148
-43 0 -16 -55 -157 -82 -211 -121 -240 -375 -453 -658 -553 -135 -47 -240 -66
-380 -66 -116 0 -240 16 -240 32 1 26 445 256 644 333 147 57 174 77 162 124
-4 14 -18 32 -32 42 -24 15 -29 15 -77 -2 -182 -63 -483 -205 -646 -304 -46
-28 -87 -48 -90 -45 -3 3 14 43 38 90 151 287 472 521 811 593 108 22 316 28
402 10z"/>
<path d="M467 2876 c-161 -67 -244 -206 -235 -396 6 -122 49 -210 160 -326
233 -242 587 -375 918 -344 196 18 360 80 552 206 55 35 129 80 166 98 258
130 574 134 836 12 39 -18 151 -85 250 -149 98 -65 184 -117 191 -117 7 0 24
9 39 21 33 26 34 68 4 96 -46 42 -335 227 -413 264 -305 146 -669 143 -969 -8
-39 -19 -118 -66 -176 -103 -128 -84 -229 -133 -335 -162 -68 -18 -105 -22
-245 -22 -150 0 -173 3 -255 28 -321 96 -575 312 -592 505 -14 151 78 271 218
288 116 14 229 -80 229 -189 0 -56 -16 -93 -66 -148 -43 -47 -43 -83 -1 -114
27 -20 28 -20 63 -1 120 65 175 256 111 387 -36 73 -119 150 -192 177 -78 30
-182 28 -258 -3z"/>
<path d="M3860 1990 c-250 -65 -441 -251 -521 -510 -34 -107 -34 -292 0 -400
77 -248 252 -424 501 -502 64 -19 96 -23 210 -23 121 1 143 4 215 29 201 69
360 212 445 400 43 95 60 176 60 297 0 126 -22 224 -73 325 l-35 69 114 117
c95 97 114 121 114 147 0 36 -30 71 -62 71 -14 0 -60 -39 -133 -110 -61 -60
-115 -110 -119 -110 -4 0 -33 22 -64 50 -71 63 -189 125 -288 150 -103 27
-261 26 -364 0z m305 -125 c92 -19 202 -75 265 -133 l51 -47 -264 -263 -264
-264 -98 109 c-119 132 -121 133 -161 133 -36 0 -64 -29 -64 -66 0 -15 51 -79
145 -183 131 -144 149 -161 178 -161 29 0 61 30 319 292 233 237 289 290 298
278 5 -8 19 -40 31 -70 120 -317 -49 -665 -376 -776 -112 -38 -256 -38 -363
-1 -354 123 -517 511 -352 837 87 172 236 280 445 324 45 9 144 5 210 -9z"/>
<path d="M2242 1736 c-118 -20 -205 -50 -334 -117 -199 -105 -296 -148 -380
-173 -192 -56 -448 -60 -613 -11 -167 49 -319 131 -444 239 -50 44 -72 56 -98
56 -39 0 -69 -36 -59 -74 7 -30 112 -128 196 -182 218 -140 430 -206 665 -206
279 0 446 44 706 187 222 122 334 155 530 155 202 0 358 -44 531 -151 108 -66
134 -70 164 -24 32 50 7 81 -136 165 -81 48 -212 99 -309 121 -113 26 -310 33
-419 15z"/>
<path d="M2235 1214 c-187 -16 -319 -57 -565 -174 -224 -107 -265 -120 -400
-127 -170 -8 -277 22 -469 132 -64 36 -125 65 -141 65 -37 0 -62 -30 -58 -72
3 -30 11 -38 83 -81 129 -79 255 -135 351 -158 75 -18 110 -20 229 -16 172 5
215 18 455 132 201 96 289 128 421 151 198 35 390 1 586 -101 63 -33 110 -52
121 -48 58 21 69 77 23 116 -48 40 -202 115 -292 140 -104 31 -254 48 -344 41z"/>
</g>
</svg>
